<?xml version="1.0" standalone="no"?>
<!DOCTYPE svg PUBLIC "-//W3C//DTD SVG 20010904//EN"
 "http://www.w3.org/TR/2001/REC-SVG-20010904/DTD/svg10.dtd">
<svg version="1.0" xmlns="http://www.w3.org/2000/svg"
 width="256.000000pt" height="256.000000pt" viewBox="0 0 256.000000 256.000000"
 preserveAspectRatio="xMidYMid meet">

<g transform="translate(0.000000,256.000000) scale(0.100000,-0.100000)"
fill="#000000" stroke="none">
<path d="M903 2383 c-57 -282 -111 -411 -213 -514 -114 -116 -333 -205 -612
-249 -43 -7 -78 -16 -78 -20 0 -5 30 -13 68 -19 173 -30 374 -87 463 -132 64
-32 137 -85 179 -132 73 -79 142 -257 190 -490 18 -86 37 -157 41 -157 5 0 9
2 9 4 0 9 41 206 56 266 86 359 215 492 571 589 59 16 140 35 180 42 72 12
102 23 92 33 -3 3 -71 20 -150 36 -257 54 -404 118 -508 223 -99 99 -164 257
-217 535 -15 78 -30 142 -33 142 -3 0 -21 -71 -38 -157z"/>
<path d="M1941 1136 c-26 -149 -84 -286 -148 -350 -39 -39 -134 -93 -188 -107
-16 -4 -55 -14 -85 -22 -30 -8 -76 -18 -102 -22 -27 -4 -48 -11 -48 -16 0 -5
2 -9 4 -9 22 0 165 -33 212 -48 158 -52 232 -111 284 -226 26 -59 60 -179 76
-268 3 -21 9 -38 13 -38 4 0 21 57 39 128 37 147 87 256 139 302 56 49 148 88
295 124 72 18 127 35 122 38 -5 3 -47 13 -94 22 -47 9 -125 31 -175 49 -78 27
-98 39 -151 92 -52 51 -67 73 -94 145 -18 46 -38 116 -46 155 -22 109 -24 115
-33 115 -5 0 -14 -29 -20 -64z"/>
</g>
</svg>
